<?xml version="1.0" standalone="no"?>
<!DOCTYPE svg PUBLIC "-//W3C//DTD SVG 20010904//EN"
 "http://www.w3.org/TR/2001/REC-SVG-20010904/DTD/svg10.dtd">
<svg version="1.0" xmlns="http://www.w3.org/2000/svg"
 width="700.000000pt" height="700.000000pt" viewBox="0 0 700.000000 700.000000"
 preserveAspectRatio="xMidYMid meet">
<metadata>
Created by potrace 1.14, written by Peter Selinger 2001-2017
</metadata>
<g transform="translate(0.000000,700.000000) scale(0.100000,-0.100000)"
fill="#000000" stroke="none">
<path d="M3315 6994 c-369 -28 -625 -77 -930 -179 -500 -167 -942 -437 -1324
-810 -600 -586 -948 -1305 -1042 -2155 -17 -148 -17 -552 0 -700 78 -701 326
-1305 760 -1850 99 -125 390 -416 516 -517 538 -428 1142 -682 1805 -757 718
-82 1447 59 2070 399 321 175 575 369 840 641 544 559 873 1254 966 2044 24
199 24 582 0 780 -81 679 -328 1273 -747 1800 -108 135 -334 367 -474 485
-530 447 -1160 718 -1860 800 -128 15 -481 27 -580 19z m-39 -1945 c249 -34
477 -150 661 -334 359 -361 444 -891 218 -1350 -25 -49 -69 -122 -98 -161
l-54 -72 40 -5 c22 -3 64 -18 93 -34 50 -26 783 -642 850 -714 55 -59 69 -96
69 -184 0 -70 -4 -86 -28 -128 -53 -89 -142 -134 -250 -124 -70 6 -126 37
-188 104 -135 146 -658 772 -682 817 -16 29 -31 71 -34 93 l-5 40 -72 -54
c-279 -210 -676 -277 -1025 -173 -321 95 -602 347 -737 659 -129 299 -124 661
15 957 113 241 325 452 566 565 90 42 229 85 320 98 87 12 252 13 341 0z"/>
<path d="M2955 4656 c-90 -21 -204 -67 -271 -111 -76 -50 -179 -153 -229 -230
-125 -190 -158 -448 -86 -665 72 -213 210 -369 412 -464 117 -56 187 -71 329
-71 149 0 216 16 345 79 162 80 278 197 356 361 59 122 74 190 74 335 0 142
-15 212 -71 329 -95 202 -251 340 -464 412 -81 27 -113 32 -215 35 -79 3 -141
-1 -180 -10z"/>
</g>
</svg>
