<?xml version="1.0" standalone="no"?>
<!DOCTYPE svg PUBLIC "-//W3C//DTD SVG 20010904//EN"
 "http://www.w3.org/TR/2001/REC-SVG-20010904/DTD/svg10.dtd">
<svg version="1.0" xmlns="http://www.w3.org/2000/svg"
 width="320.000000pt" height="320.000000pt" viewBox="0 0 320.000000 320.000000"
 preserveAspectRatio="xMidYMid meet">
<metadata>
Created by potrace 1.14, written by Peter Selinger 2001-2017
</metadata>
<g transform="translate(0.000000,320.000000) scale(0.100000,-0.100000)"
fill="#000000" stroke="none">
<path d="M1572 2328 c-17 -17 -17 -1019 0 -1036 18 -18 53 -15 71 6 15 17 17
67 17 511 0 320 -4 499 -10 512 -12 22 -59 26 -78 7z"/>
<path d="M2141 1956 c-129 -58 -238 -111 -242 -118 -11 -17 -11 -39 -1 -56 14
-22 470 -221 493 -215 28 8 44 45 31 70 -7 12 -76 48 -176 93 -91 40 -166 76
-166 80 0 4 73 39 163 79 156 70 187 89 187 118 0 14 -35 53 -47 53 -5 0 -113
-47 -242 -104z"/>
<path d="M775 1690 c-16 -18 -17 -26 -7 -71 33 -141 146 -332 268 -455 171
-171 391 -275 642 -304 105 -13 132 -8 151 28 10 20 -3 61 -21 66 -7 2 -60 8
-118 14 -111 11 -240 47 -325 89 -232 116 -421 339 -491 579 -21 73 -62 95
-99 54z"/>
</g>
</svg>
